<?xml version="1.0" encoding="UTF-8"?>
<svg id="Layer_2" xmlns="http://www.w3.org/2000/svg" viewBox="0 0 580.82 134.3">
  <defs>
    <style>
      .cls-1 {
        fill: #dc1e37;
      }

      .cls-2 {
        fill: #231f20;
      }

      .cls-3 {
        fill: #010101;
      }
    </style>
  </defs>
  <g id="Layer_1-2" data-name="Layer_1">
    <g>
      <polygon class="cls-3" points="64.74 25.41 98.11 25.41 98.11 32.38 72.69 32.38 72.69 40.2 95.2 40.2 95.2 46.75 72.69 46.75 72.69 57.65 98.63 57.65 98.63 64.6 64.74 64.6 64.74 25.41"/>
      <path class="cls-3" d="M120.57,25.41h8.43l18.95,39.19h-8.35l-3.13-6.59h-22.89l-3.03,6.59h-8.37l18.4-39.19ZM133.33,51.46l-8.47-17.8-8.25,17.8h16.72Z"/>
      <g>
        <path class="cls-3" d="M153.3,52.94c1.42.8,2.86,1.53,4.33,2.17,1.46.64,2.98,1.19,4.55,1.63,1.57.44,3.22.78,4.95,1.01,1.73.23,3.57.35,5.53.35,2.36,0,4.36-.15,6.02-.46,1.66-.31,3-.74,4.05-1.28,1.05-.54,1.81-1.19,2.28-1.94.48-.75.72-1.57.72-2.45,0-1.42-.59-2.55-1.78-3.37-1.19-.83-3.02-1.24-5.49-1.24-1.08,0-2.23.07-3.43.21-1.2.14-2.42.3-3.65.46-1.23.17-2.44.32-3.64.47-1.2.14-2.32.21-3.37.21-1.76,0-3.44-.23-5.05-.68-1.61-.45-3.04-1.13-4.29-2.03-1.25-.9-2.23-2.03-2.97-3.39-.73-1.35-1.1-2.93-1.1-4.74,0-1.07.15-2.13.44-3.19.29-1.05.76-2.06,1.4-3.02.64-.96,1.48-1.86,2.49-2.68,1.02-.83,2.25-1.54,3.7-2.14,1.44-.6,3.12-1.07,5.01-1.42,1.89-.34,4.05-.52,6.48-.52,1.75,0,3.52.1,5.29.29,1.77.19,3.5.46,5.18.81,1.67.35,3.29.78,4.85,1.27,1.56.49,3,1.04,4.34,1.64l-3.48,6.42c-1.1-.48-2.29-.93-3.56-1.34-1.27-.41-2.6-.77-3.99-1.07-1.39-.3-2.82-.54-4.3-.71-1.48-.17-2.99-.26-4.52-.26-2.19,0-3.99.16-5.41.47-1.41.32-2.54.72-3.37,1.22-.84.49-1.42,1.04-1.74,1.66-.33.61-.49,1.22-.49,1.82,0,1.17.53,2.13,1.58,2.87,1.05.75,2.66,1.11,4.81,1.11.87,0,1.87-.06,2.99-.19,1.13-.13,2.32-.26,3.56-.42,1.24-.15,2.51-.29,3.81-.41,1.29-.12,2.55-.19,3.77-.19,2.31,0,4.35.26,6.13.78,1.78.52,3.27,1.26,4.48,2.22,1.2.96,2.11,2.12,2.73,3.48.62,1.36.93,2.89.93,4.57,0,2.26-.52,4.27-1.57,6.03-1.05,1.77-2.53,3.25-4.46,4.46-1.93,1.22-4.25,2.13-6.98,2.76-2.72.63-5.76.94-9.1.94-2.21,0-4.36-.14-6.47-.41-2.11-.28-4.12-.67-6.05-1.18-1.93-.51-3.77-1.12-5.52-1.83-1.75-.71-3.36-1.49-4.85-2.34l4.24-6.45Z"/>
        <polygon class="cls-3" points="209.49 32.38 195.03 32.38 195.03 25.41 231.9 25.41 231.9 32.38 217.44 32.38 217.44 64.6 209.49 64.6 209.49 32.38"/>
        <path class="cls-3" d="M113.83,71.57h20.94c2.55,0,4.78.27,6.68.82,1.89.54,3.47,1.29,4.73,2.24,1.25.95,2.18,2.09,2.79,3.4.61,1.31.91,2.73.91,4.25,0,2.49-.78,4.67-2.36,6.54,1.81,1.07,3.15,2.46,4.04,4.16.89,1.7,1.33,3.64,1.33,5.81,0,1.82-.31,3.47-.91,4.94-.61,1.47-1.54,2.73-2.78,3.77-1.25,1.05-2.82,1.85-4.71,2.41-1.89.56-4.13.84-6.7.84h-23.94v-39.19ZM137.83,86.61c.69,0,1.35.03,2,.08,1.12-1.07,1.68-2.29,1.68-3.66s-.56-2.52-1.67-3.3c-1.11-.78-2.74-1.17-4.88-1.17h-13.19v8.05h16.05ZM137.98,103.84c2.14,0,3.76-.46,4.88-1.38,1.11-.92,1.67-2.22,1.67-3.89s-.56-2.98-1.67-3.91c-1.11-.94-2.74-1.4-4.88-1.4h-16.2v10.58h16.2Z"/>
        <path class="cls-3" d="M172.25,71.57h8.43l18.95,39.19h-8.35l-3.13-6.59h-22.89l-3.03,6.59h-8.37l18.4-39.19ZM185.01,97.62l-8.47-17.8-8.25,17.8h16.72Z"/>
        <polygon class="cls-3" points="209.52 101.06 192.39 71.57 201.39 71.57 213.45 93.86 225.36 71.57 234.36 71.57 217.46 101 217.46 110.76 209.52 110.76 209.52 101.06"/>
        <path class="cls-1" d="M100.8,85.43l-.2.98-.2.97-.2-.97-.2-.98c-.33-1.64-1.14-3.09-2.27-4.23-1.13-1.13-2.59-1.94-4.23-2.27l-.97-.2-.98-.2.98-.2.97-.2c1.64-.33,3.1-1.14,4.23-2.27,1.13-1.13,1.94-2.59,2.27-4.23l.2-.98.2-.97.2.97.2.98c.33,1.64,1.14,3.09,2.27,4.23,1.13,1.13,2.59,1.94,4.23,2.27l.97.2.98.2-.98.2-.97.2c-1.64.33-3.09,1.14-4.23,2.27-1.13,1.13-1.94,2.59-2.27,4.23"/>
        <path class="cls-3" d="M0,57.05c0-1.06.2-2.05.6-2.98.4-.92.98-1.72,1.74-2.4.76-.68,1.69-1.21,2.79-1.6,1.1-.39,2.34-.58,3.73-.58,1.22,0,2.33.12,3.35.37,1.01.24,1.96.62,2.83,1.12l-1.39,2.29c-.26-.17-.56-.33-.9-.46-.34-.13-.7-.25-1.09-.34-.39-.09-.78-.16-1.2-.22s-.82-.08-1.22-.08c-.97,0-1.83.12-2.59.36-.76.24-1.4.57-1.92,1-.52.43-.91.94-1.18,1.54-.27.6-.41,1.25-.41,1.96s.14,1.42.42,2.03c.28.62.68,1.15,1.22,1.6.53.45,1.18.8,1.95,1.05.77.25,1.63.38,2.6.38.44,0,.88-.03,1.31-.1.43-.06.85-.15,1.26-.26.4-.11.79-.24,1.17-.4.37-.16.73-.33,1.05-.51l1.4,2.29c-.82.52-1.76.93-2.83,1.23-1.07.3-2.21.45-3.41.45-1.54,0-2.88-.2-4.04-.6-1.16-.4-2.13-.95-2.9-1.64-.78-.7-1.36-1.52-1.75-2.46S0,58.14,0,57.05"/>
        <path class="cls-3" d="M25.52,49.67h3.21l7.22,14.93h-3.18l-1.2-2.51h-8.72l-1.16,2.51h-3.19l7.01-14.93ZM30.38,59.6l-3.23-6.78-3.14,6.78h6.37Z"/>
        <polygon class="cls-3" points="39.83 49.68 42.86 49.68 42.86 61.95 51.54 61.95 51.54 64.6 39.83 64.6 39.83 49.68"/>
        <path class="cls-3" d="M1.61,82.17c.54.31,1.09.58,1.65.83.56.24,1.13.45,1.73.62.6.17,1.23.3,1.89.39.66.09,1.36.13,2.11.13.9,0,1.66-.06,2.29-.18.63-.11,1.14-.28,1.54-.49.4-.21.69-.45.87-.74.18-.29.27-.6.27-.93,0-.54-.23-.97-.68-1.29-.45-.32-1.15-.47-2.09-.47-.42,0-.85.03-1.31.08-.46.06-.92.11-1.39.18-.47.07-.93.12-1.38.18s-.88.08-1.28.08c-.67,0-1.31-.09-1.92-.26-.62-.17-1.16-.43-1.63-.77-.48-.34-.85-.77-1.13-1.29-.28-.52-.42-1.12-.42-1.81,0-.41.05-.81.17-1.21.11-.4.29-.78.54-1.15.24-.37.56-.71.95-1.02.39-.32.86-.59,1.41-.82.55-.23,1.19-.41,1.91-.54.72-.13,1.55-.2,2.47-.2.67,0,1.34.04,2.01.11.67.07,1.33.18,1.97.31.64.13,1.25.3,1.85.48.59.19,1.14.4,1.65.63l-1.33,2.45c-.42-.18-.87-.35-1.35-.51-.49-.16-.99-.29-1.52-.41-.53-.11-1.08-.21-1.64-.27-.56-.07-1.14-.1-1.72-.1-.84,0-1.52.06-2.06.18-.54.12-.97.28-1.29.46-.32.19-.54.4-.66.63-.12.23-.19.46-.19.69,0,.45.2.81.6,1.09.4.29,1.01.43,1.83.43.33,0,.71-.02,1.14-.07.43-.05.88-.1,1.35-.16.47-.06.96-.11,1.45-.16.49-.05.97-.07,1.44-.07.88,0,1.66.1,2.34.3.68.2,1.25.48,1.7.85.46.37.8.81,1.04,1.33.23.52.35,1.1.35,1.74,0,.86-.2,1.63-.6,2.3s-.96,1.24-1.7,1.7c-.74.46-1.62.81-2.66,1.05-1.04.24-2.19.36-3.47.36-.84,0-1.66-.05-2.46-.16-.8-.11-1.57-.25-2.31-.45-.74-.19-1.44-.43-2.1-.7-.67-.27-1.28-.57-1.85-.89l1.61-2.45Z"/>
        <polygon class="cls-3" points="25.76 74.34 20.25 74.34 20.25 71.68 34.29 71.68 34.29 74.34 28.78 74.34 28.78 86.61 25.76 86.61 25.76 74.34"/>
        <path class="cls-3" d="M43.4,71.68h3.21l7.22,14.93h-3.18l-1.2-2.51h-8.72l-1.16,2.51h-3.19l7.01-14.93ZM48.26,81.61l-3.23-6.78-3.14,6.78h6.37Z"/>
        <polygon class="cls-3" points="61.43 74.34 55.92 74.34 55.92 71.68 69.97 71.68 69.97 74.34 64.46 74.34 64.46 86.61 61.43 86.61 61.43 74.34"/>
        <polygon class="cls-3" points="75.35 71.68 88.06 71.68 88.06 74.34 78.37 74.34 78.37 77.32 86.95 77.32 86.95 79.81 78.37 79.81 78.37 83.96 88.26 83.96 88.26 86.61 75.35 86.61 75.35 71.68"/>
      </g>
    </g>
    <rect class="cls-2" x="262.96" width="7.26" height="134.3"/>
    <g>
      <path class="cls-3" d="M299.19,25.6h8.39c2.45,0,4.58.26,6.39.79s3.3,1.28,4.49,2.26,2.07,2.17,2.65,3.57.87,2.98.87,4.72-.29,3.2-.86,4.61-1.46,2.63-2.64,3.66-2.68,1.84-4.48,2.42-3.94.87-6.39.87h-8.42v-22.91ZM308.73,44.48c1.39,0,2.6-.18,3.65-.53s1.92-.86,2.61-1.52,1.22-1.45,1.57-2.37.53-1.96.53-3.11-.18-2.14-.53-3.04-.88-1.67-1.57-2.3-1.57-1.12-2.61-1.46-2.26-.51-3.65-.51h-4.89v14.84h4.89Z"/>
      <path class="cls-3" d="M326.64,25.6h19.5v4.07h-14.85v4.57h13.15v3.82h-13.15v6.37h15.16v4.06h-19.8v-22.9Z"/>
      <path class="cls-3" d="M351.6,25.6h12.07c1.76,0,3.28.19,4.57.57s2.36.93,3.21,1.65,1.48,1.59,1.9,2.63c.41,1.04.62,2.2.62,3.5,0,1.22-.21,2.35-.62,3.38-.41,1.04-1.04,1.93-1.88,2.69-.85.76-1.91,1.35-3.2,1.77s-2.81.64-4.57.64h-7.46s0,6.06,0,6.06h-4.64v-22.9ZM363.79,38.4c.88,0,1.65-.1,2.31-.31.66-.21,1.21-.51,1.66-.89.44-.39.78-.85,1-1.41.22-.55.33-1.16.33-1.84,0-1.36-.44-2.41-1.33-3.17-.88-.76-2.21-1.14-3.96-1.14h-7.54v8.76h7.54Z"/>
      <path class="cls-3" d="M384.45,25.6h4.92l11.07,22.9h-4.88l-1.83-3.85h-13.37l-1.77,3.85h-4.89l10.75-22.9ZM391.9,40.82l-4.95-10.4-4.82,10.4h9.77Z"/>
      <path class="cls-3" d="M404,25.6h11.65c1.76,0,3.28.18,4.57.55s2.36.9,3.21,1.59,1.48,1.54,1.9,2.53.62,2.12.62,3.38c0,.85-.1,1.66-.31,2.42s-.52,1.47-.94,2.12c-.43.64-.96,1.22-1.6,1.72s-1.4.92-2.27,1.25l4.98,7.32h-5.68l-4.31-6.5h-7.16s0,6.5,0,6.5h-4.64v-22.9ZM415.76,37.96c.88,0,1.65-.1,2.31-.31.66-.21,1.21-.49,1.65-.86s.78-.82,1-1.35c.22-.53.33-1.13.33-1.78,0-1.28-.44-2.27-1.32-2.97s-2.2-1.05-3.97-1.05h-7.12v8.32h7.12Z"/>
      <path class="cls-3" d="M438.34,29.67h-8.45v-4.07h21.55v4.07h-8.45v18.82h-4.64v-18.82Z"/>
      <path class="cls-3" d="M456.4,25.6h4.64l8.32,8.35,8.32-8.35h4.64v22.9h-4.64v-16.46l-8.32,8.01-8.32-8.01v16.46h-4.64v-22.9Z"/>
      <path class="cls-3" d="M488.85,25.6h19.5v4.07h-14.85v4.57h13.15v3.82h-13.15v6.37h15.16v4.06h-19.8v-22.9Z"/>
      <path class="cls-3" d="M513.78,25.6h4.64l14.27,7.47v-7.47h4.64v22.9h-4.64v-10.5l-14.27-7.43v17.93h-4.64v-22.9Z"/>
      <path class="cls-3" d="M550.71,29.67h-8.45v-4.07h21.55v4.07h-8.45v18.82h-4.64v-18.82Z"/>
      <path class="cls-3" d="M297.84,66.98c0-1.73.32-3.31.95-4.75s1.53-2.67,2.67-3.7c1.15-1.03,2.52-1.83,4.13-2.4s3.39-.85,5.34-.85,3.72.28,5.33.85,2.99,1.36,4.14,2.4,2.04,2.26,2.67,3.7.95,3.02.95,4.75-.32,3.33-.95,4.78-1.53,2.7-2.67,3.74-2.53,1.86-4.14,2.44-3.39.87-5.33.87-3.73-.29-5.34-.87-2.98-1.39-4.13-2.44c-1.15-1.04-2.04-2.29-2.67-3.74s-.95-3.04-.95-4.78ZM302.49,66.98c0,1.18.21,2.25.64,3.19s1.02,1.76,1.77,2.42,1.65,1.18,2.68,1.55,2.15.54,3.36.54,2.33-.18,3.36-.54,1.92-.88,2.67-1.55,1.34-1.48,1.77-2.42.64-2.01.64-3.19-.21-2.24-.64-3.18-1.02-1.73-1.77-2.38-1.64-1.15-2.67-1.49-2.15-.51-3.36-.51-2.33.17-3.36.51-1.92.84-2.68,1.49-1.35,1.44-1.77,2.38-.64,2-.64,3.18Z"/>
      <path class="cls-3" d="M329.19,55.6h20.48v4.07h-15.83v5.99h13.45v3.82h-13.45v9.01h-4.64v-22.9Z"/>
      <path class="cls-3" d="M362.72,66.91c0-1.63.31-3.15.92-4.56s1.51-2.64,2.67-3.68c1.17-1.04,2.59-1.86,4.28-2.45,1.68-.6,3.59-.89,5.72-.89,1.87,0,3.58.19,5.13.56s3.01.95,4.34,1.72l-2.14,3.52c-.4-.26-.86-.5-1.38-.7s-1.08-.38-1.67-.52-1.2-.25-1.83-.33c-.63-.08-1.25-.12-1.87-.12-1.48,0-2.81.18-3.97.55s-2.14.88-2.94,1.54-1.4,1.45-1.82,2.36-.62,1.92-.62,3.01.21,2.17.64,3.12,1.05,1.77,1.87,2.45c.81.69,1.81,1.23,2.99,1.61,1.18.39,2.51.58,3.99.58.67,0,1.34-.05,2.01-.15s1.31-.23,1.93-.4,1.22-.38,1.79-.62,1.11-.5,1.61-.78l2.14,3.52c-1.25.8-2.7,1.43-4.34,1.88s-3.38.68-5.23.68c-2.35,0-4.42-.31-6.2-.92s-3.26-1.45-4.45-2.52-2.09-2.33-2.69-3.78c-.6-1.45-.9-3.01-.9-4.68Z"/>
      <path class="cls-3" d="M390.29,66.98c0-1.73.32-3.31.95-4.75s1.53-2.67,2.67-3.7,2.52-1.83,4.13-2.4,3.39-.85,5.34-.85,3.72.28,5.33.85,2.99,1.36,4.14,2.4c1.15,1.03,2.04,2.26,2.67,3.7s.95,3.02.95,4.75-.32,3.33-.95,4.78-1.53,2.7-2.67,3.74c-1.15,1.04-2.53,1.86-4.14,2.44s-3.39.87-5.33.87-3.73-.29-5.34-.87-2.98-1.39-4.13-2.44-2.04-2.29-2.67-3.74-.95-3.04-.95-4.78ZM394.93,66.98c0,1.18.21,2.25.64,3.19.42.95,1.01,1.76,1.77,2.42s1.65,1.18,2.68,1.55c1.03.36,2.15.54,3.36.54s2.33-.18,3.36-.54,1.92-.88,2.67-1.55,1.34-1.48,1.77-2.42.64-2.01.64-3.19-.21-2.24-.64-3.18-1.02-1.73-1.77-2.38-1.64-1.15-2.67-1.49-2.15-.51-3.36-.51-2.33.17-3.36.51c-1.03.34-1.92.84-2.68,1.49s-1.35,1.44-1.77,2.38c-.43.94-.64,2-.64,3.18Z"/>
      <path class="cls-3" d="M421.65,55.6h4.64l8.32,8.35,8.32-8.35h4.64v22.9h-4.64v-16.46l-8.32,8.01-8.32-8.01v16.46h-4.64v-22.9Z"/>
      <path class="cls-3" d="M454.1,55.6h12.07c1.76,0,3.28.19,4.57.57s2.36.93,3.21,1.65,1.48,1.59,1.9,2.63c.41,1.04.62,2.2.62,3.5,0,1.22-.21,2.35-.62,3.38s-1.04,1.93-1.88,2.69c-.85.76-1.91,1.35-3.2,1.77s-2.81.64-4.57.64h-7.46s0,6.06,0,6.06h-4.64v-22.9ZM466.29,68.4c.88,0,1.65-.1,2.31-.31.66-.21,1.21-.51,1.66-.89.44-.39.78-.85,1-1.41.22-.55.33-1.16.33-1.84,0-1.36-.44-2.41-1.33-3.17-.88-.76-2.21-1.14-3.96-1.14h-7.54v8.76h7.54Z"/>
      <path class="cls-3" d="M480.67,55.6h4.64v12.61c0,1.04.14,1.96.42,2.76s.71,1.49,1.27,2.04,1.26.98,2.09,1.27,1.8.43,2.9.43,2.06-.14,2.89-.43c.84-.29,1.53-.71,2.1-1.27.56-.56.98-1.24,1.27-2.04s.42-1.73.42-2.76v-12.61h4.64v13.17c0,1.5-.25,2.87-.76,4.1s-1.25,2.29-2.21,3.16-2.15,1.56-3.55,2.04-3,.72-4.8.72-3.4-.24-4.8-.72c-1.4-.48-2.59-1.16-3.55-2.04s-1.7-1.93-2.21-3.16-.76-2.6-.76-4.1v-13.17Z"/>
      <path class="cls-3" d="M515.87,59.67h-8.45v-4.07h21.55v4.07h-8.45v18.82h-4.64v-18.82Z"/>
      <path class="cls-3" d="M533.92,55.6h19.5v4.07h-14.85v4.57h13.15v3.82h-13.15v6.37h15.16v4.06h-19.8v-22.9Z"/>
      <path class="cls-3" d="M558.88,55.6h11.65c1.76,0,3.28.18,4.57.55s2.36.9,3.21,1.59,1.48,1.54,1.9,2.53.62,2.12.62,3.38c0,.85-.1,1.66-.31,2.42s-.52,1.47-.94,2.12c-.43.64-.96,1.22-1.6,1.72s-1.4.92-2.27,1.25l4.98,7.32h-5.68l-4.31-6.5h-7.16s0,6.5,0,6.5h-4.64v-22.9ZM570.64,67.96c.88,0,1.65-.1,2.31-.31.66-.21,1.21-.49,1.65-.86s.78-.82,1-1.35c.22-.53.33-1.13.33-1.78,0-1.28-.44-2.27-1.32-2.97s-2.2-1.05-3.97-1.05h-7.12v8.32h7.12Z"/>
      <path class="cls-3" d="M300.26,101.68c.83.47,1.67.89,2.53,1.27s1.74.69,2.66.95,1.88.46,2.89.59,2.09.21,3.23.21c1.38,0,2.55-.09,3.52-.27s1.76-.43,2.37-.75,1.05-.7,1.33-1.14.42-.92.42-1.44c0-.83-.35-1.49-1.04-1.97s-1.76-.73-3.21-.73c-.63,0-1.3.04-2.01.12s-1.41.17-2.13.27-1.43.19-2.12.27-1.35.12-1.97.12c-1.03,0-2.01-.13-2.95-.4s-1.78-.66-2.5-1.19-1.31-1.19-1.74-1.98-.64-1.71-.64-2.77c0-.62.09-1.25.26-1.86s.44-1.2.82-1.77.86-1.08,1.46-1.57,1.32-.9,2.16-1.25,1.82-.63,2.93-.83,2.37-.3,3.79-.3c1.03,0,2.06.06,3.09.17s2.04.27,3.02.48,1.93.45,2.83.74,1.75.61,2.53.96l-2.04,3.75c-.64-.28-1.34-.54-2.08-.78s-1.52-.45-2.33-.62-1.65-.31-2.51-.42c-.86-.1-1.75-.15-2.64-.15-1.28,0-2.33.09-3.16.28s-1.48.42-1.97.71-.83.61-1.02.97-.29.71-.29,1.06c0,.68.31,1.24.92,1.68s1.55.65,2.81.65c.51,0,1.09-.04,1.75-.11s1.35-.15,2.08-.24,1.47-.17,2.23-.24,1.49-.11,2.2-.11c1.35,0,2.54.15,3.58.45s1.91.73,2.61,1.3,1.24,1.24,1.6,2.04.54,1.69.54,2.67c0,1.32-.31,2.49-.92,3.52s-1.48,1.9-2.61,2.61-2.49,1.25-4.08,1.61-3.36.55-5.32.55c-1.29,0-2.55-.08-3.78-.24s-2.41-.39-3.54-.69-2.2-.65-3.22-1.07-1.97-.87-2.83-1.37l2.48-3.76Z"/>
      <path class="cls-3" d="M327.8,96.91c0-1.63.31-3.15.92-4.56s1.51-2.64,2.67-3.68,2.59-1.86,4.28-2.45,3.59-.89,5.72-.89c1.87,0,3.58.19,5.13.56s3,.95,4.34,1.72l-2.14,3.52c-.4-.26-.86-.5-1.38-.7s-1.08-.38-1.67-.52-1.2-.25-1.83-.33-1.25-.12-1.87-.12c-1.48,0-2.81.18-3.97.55s-2.14.88-2.94,1.54-1.4,1.45-1.82,2.36-.62,1.92-.62,3.01.21,2.17.64,3.12,1.05,1.77,1.87,2.45,1.81,1.23,2.99,1.61,2.51.58,3.99.58c.67,0,1.34-.05,2.01-.15s1.31-.23,1.93-.4,1.22-.38,1.79-.62,1.11-.5,1.61-.78l2.14,3.52c-1.25.8-2.7,1.43-4.34,1.88-1.64.45-3.38.68-5.23.68-2.35,0-4.42-.31-6.2-.92s-3.26-1.45-4.45-2.52-2.09-2.33-2.69-3.78-.9-3.01-.9-4.68Z"/>
      <path class="cls-3" d="M356.13,85.6h4.67v22.9h-4.67v-22.9Z"/>
      <path class="cls-3" d="M366.72,85.6h19.5v4.07h-14.85v4.57h13.15v3.82h-13.15v6.37h15.16v4.06h-19.8v-22.9Z"/>
      <path class="cls-3" d="M391.65,85.6h4.64l14.27,7.47v-7.47h4.64v22.9h-4.64v-10.5l-14.27-7.43v17.93h-4.64v-22.9Z"/>
      <path class="cls-3" d="M420.29,96.91c0-1.63.31-3.15.92-4.56s1.51-2.64,2.67-3.68c1.17-1.04,2.59-1.86,4.28-2.45,1.68-.6,3.59-.89,5.72-.89,1.87,0,3.58.19,5.13.56s3.01.95,4.34,1.72l-2.14,3.52c-.4-.26-.86-.5-1.38-.7s-1.08-.38-1.67-.52-1.2-.25-1.83-.33c-.63-.08-1.25-.12-1.87-.12-1.48,0-2.81.18-3.97.55s-2.14.88-2.94,1.54-1.4,1.45-1.82,2.36-.62,1.92-.62,3.01.21,2.17.64,3.12,1.05,1.77,1.87,2.45c.81.69,1.81,1.23,2.99,1.61,1.18.39,2.51.58,3.99.58.67,0,1.34-.05,2.01-.15s1.31-.23,1.93-.4,1.22-.38,1.79-.62,1.11-.5,1.61-.78l2.14,3.52c-1.25.8-2.7,1.43-4.34,1.88s-3.38.68-5.23.68c-2.35,0-4.42-.31-6.2-.92s-3.26-1.45-4.45-2.52-2.09-2.33-2.69-3.78c-.6-1.45-.9-3.01-.9-4.68Z"/>
      <path class="cls-3" d="M449.21,85.6h19.5v4.07h-14.85v4.57h13.15v3.82h-13.15v6.37h15.16v4.06h-19.8v-22.9Z"/>
    </g>
  </g>
</svg>