<?xml version="1.0" encoding="UTF-8"?>
<svg id="Layer_2" xmlns="http://www.w3.org/2000/svg" viewBox="0 0 656.43 134.3">
  <defs>
    <style>
      .cls-1 {
        fill: #dc1e37;
      }

      .cls-2 {
        fill: #231f20;
      }

      .cls-3 {
        fill: #010101;
      }
    </style>
  </defs>
  <g id="Layer_1-2" data-name="Layer_1">
    <g>
      <g>
        <polygon class="cls-3" points="64.74 25.41 98.11 25.41 98.11 32.38 72.69 32.38 72.69 40.2 95.2 40.2 95.2 46.75 72.69 46.75 72.69 57.65 98.63 57.65 98.63 64.6 64.74 64.6 64.74 25.41"/>
        <path class="cls-3" d="M120.57,25.41h8.43l18.95,39.19h-8.35l-3.13-6.59h-22.89l-3.03,6.59h-8.37l18.4-39.19ZM133.33,51.46l-8.47-17.8-8.25,17.8h16.72Z"/>
        <g>
          <path class="cls-3" d="M153.3,52.94c1.42.8,2.86,1.53,4.33,2.17,1.46.64,2.98,1.19,4.55,1.63,1.57.44,3.22.78,4.95,1.01,1.73.23,3.57.35,5.53.35,2.36,0,4.36-.15,6.02-.46,1.66-.31,3-.74,4.05-1.28,1.05-.54,1.81-1.19,2.28-1.94.48-.75.72-1.57.72-2.45,0-1.42-.59-2.55-1.78-3.37-1.19-.83-3.02-1.24-5.49-1.24-1.08,0-2.23.07-3.43.21-1.2.14-2.42.3-3.65.46-1.23.17-2.44.32-3.64.47-1.2.14-2.32.21-3.37.21-1.76,0-3.44-.23-5.05-.68-1.61-.45-3.04-1.13-4.29-2.03-1.25-.9-2.23-2.03-2.97-3.39-.73-1.35-1.1-2.93-1.1-4.74,0-1.07.15-2.13.44-3.19.29-1.05.76-2.06,1.4-3.02.64-.96,1.48-1.86,2.49-2.68,1.02-.83,2.25-1.54,3.7-2.14,1.44-.6,3.12-1.07,5.01-1.42,1.89-.34,4.05-.52,6.48-.52,1.75,0,3.52.1,5.29.29,1.77.19,3.5.46,5.18.81,1.67.35,3.29.78,4.85,1.27,1.56.49,3,1.04,4.34,1.64l-3.48,6.42c-1.1-.48-2.29-.93-3.56-1.34-1.27-.41-2.6-.77-3.99-1.07-1.39-.3-2.82-.54-4.3-.71-1.48-.17-2.99-.26-4.52-.26-2.19,0-3.99.16-5.41.47-1.41.32-2.54.72-3.37,1.22-.84.49-1.42,1.04-1.74,1.66-.33.61-.49,1.22-.49,1.82,0,1.17.53,2.13,1.58,2.87,1.05.75,2.66,1.11,4.81,1.11.87,0,1.87-.06,2.99-.19,1.13-.13,2.32-.26,3.56-.42,1.24-.15,2.51-.29,3.81-.41,1.29-.12,2.55-.19,3.77-.19,2.31,0,4.35.26,6.13.78,1.78.52,3.27,1.26,4.48,2.22,1.2.96,2.11,2.12,2.73,3.48.62,1.36.93,2.89.93,4.57,0,2.26-.52,4.27-1.57,6.03-1.05,1.77-2.53,3.25-4.46,4.46-1.93,1.22-4.25,2.13-6.98,2.76-2.72.63-5.76.94-9.1.94-2.21,0-4.36-.14-6.47-.41-2.11-.28-4.12-.67-6.05-1.18-1.93-.51-3.77-1.12-5.52-1.83-1.75-.71-3.36-1.49-4.85-2.34l4.24-6.45Z"/>
          <polygon class="cls-3" points="209.49 32.38 195.03 32.38 195.03 25.41 231.9 25.41 231.9 32.38 217.44 32.38 217.44 64.6 209.49 64.6 209.49 32.38"/>
          <path class="cls-3" d="M113.83,71.57h20.94c2.55,0,4.78.27,6.68.82,1.89.54,3.47,1.29,4.73,2.24,1.25.95,2.18,2.09,2.79,3.4.61,1.31.91,2.73.91,4.25,0,2.49-.78,4.67-2.36,6.54,1.81,1.07,3.15,2.46,4.04,4.16.89,1.7,1.33,3.64,1.33,5.81,0,1.82-.31,3.47-.91,4.94-.61,1.47-1.54,2.73-2.78,3.77-1.25,1.05-2.82,1.85-4.71,2.41-1.89.56-4.13.84-6.7.84h-23.94v-39.19ZM137.83,86.61c.69,0,1.35.03,2,.08,1.12-1.07,1.68-2.29,1.68-3.66s-.56-2.52-1.67-3.3c-1.11-.78-2.74-1.17-4.88-1.17h-13.19v8.05h16.05ZM137.98,103.84c2.14,0,3.76-.46,4.88-1.38,1.11-.92,1.67-2.22,1.67-3.89s-.56-2.98-1.67-3.91c-1.11-.94-2.74-1.4-4.88-1.4h-16.2v10.58h16.2Z"/>
          <path class="cls-3" d="M172.25,71.57h8.43l18.95,39.19h-8.35l-3.13-6.59h-22.89l-3.03,6.59h-8.37l18.4-39.19ZM185.01,97.62l-8.47-17.8-8.25,17.8h16.72Z"/>
          <polygon class="cls-3" points="209.52 101.06 192.39 71.57 201.39 71.57 213.45 93.86 225.36 71.57 234.36 71.57 217.46 101 217.46 110.76 209.52 110.76 209.52 101.06"/>
          <path class="cls-1" d="M100.8,85.43l-.2.98-.2.97-.2-.97-.2-.98c-.33-1.64-1.14-3.09-2.27-4.23-1.13-1.13-2.59-1.94-4.23-2.27l-.97-.2-.98-.2.98-.2.97-.2c1.64-.33,3.1-1.14,4.23-2.27,1.13-1.13,1.94-2.59,2.27-4.23l.2-.98.2-.97.2.97.2.98c.33,1.64,1.14,3.09,2.27,4.23,1.13,1.13,2.59,1.94,4.23,2.27l.97.2.98.2-.98.2-.97.2c-1.64.33-3.09,1.14-4.23,2.27-1.13,1.13-1.94,2.59-2.27,4.23"/>
          <path class="cls-3" d="M0,57.05c0-1.06.2-2.05.6-2.98.4-.92.98-1.72,1.74-2.4.76-.68,1.69-1.21,2.79-1.6,1.1-.39,2.34-.58,3.73-.58,1.22,0,2.33.12,3.35.37,1.01.24,1.96.62,2.83,1.12l-1.39,2.29c-.26-.17-.56-.33-.9-.46-.34-.13-.7-.25-1.09-.34-.39-.09-.78-.16-1.2-.22s-.82-.08-1.22-.08c-.97,0-1.83.12-2.59.36-.76.24-1.4.57-1.92,1-.52.43-.91.94-1.18,1.54-.27.6-.41,1.25-.41,1.96s.14,1.42.42,2.03c.28.62.68,1.15,1.22,1.6.53.45,1.18.8,1.95,1.05.77.25,1.63.38,2.6.38.44,0,.88-.03,1.31-.1.43-.06.85-.15,1.26-.26.4-.11.79-.24,1.17-.4.37-.16.73-.33,1.05-.51l1.4,2.29c-.82.52-1.76.93-2.83,1.23-1.07.3-2.21.45-3.41.45-1.54,0-2.88-.2-4.04-.6-1.16-.4-2.13-.95-2.9-1.64-.78-.7-1.36-1.52-1.75-2.46S0,58.14,0,57.05"/>
          <path class="cls-3" d="M25.52,49.67h3.21l7.22,14.93h-3.18l-1.2-2.51h-8.72l-1.16,2.51h-3.19l7.01-14.93ZM30.38,59.6l-3.23-6.78-3.14,6.78h6.37Z"/>
          <polygon class="cls-3" points="39.83 49.68 42.86 49.68 42.86 61.95 51.54 61.95 51.54 64.6 39.83 64.6 39.83 49.68"/>
          <path class="cls-3" d="M1.61,82.17c.54.31,1.09.58,1.65.83.56.24,1.13.45,1.73.62.6.17,1.23.3,1.89.39.66.09,1.36.13,2.11.13.9,0,1.66-.06,2.29-.18.63-.11,1.14-.28,1.54-.49.4-.21.69-.45.87-.74.18-.29.27-.6.27-.93,0-.54-.23-.97-.68-1.29-.45-.32-1.15-.47-2.09-.47-.42,0-.85.03-1.31.08-.46.06-.92.11-1.39.18-.47.07-.93.12-1.38.18s-.88.08-1.28.08c-.67,0-1.31-.09-1.92-.26-.62-.17-1.16-.43-1.63-.77-.48-.34-.85-.77-1.13-1.29-.28-.52-.42-1.12-.42-1.81,0-.41.05-.81.17-1.21.11-.4.29-.78.54-1.15.24-.37.56-.71.95-1.02.39-.32.86-.59,1.41-.82.55-.23,1.19-.41,1.91-.54.72-.13,1.55-.2,2.47-.2.67,0,1.34.04,2.01.11.67.07,1.33.18,1.97.31.64.13,1.25.3,1.85.48.59.19,1.14.4,1.65.63l-1.33,2.45c-.42-.18-.87-.35-1.35-.51-.49-.16-.99-.29-1.52-.41-.53-.11-1.08-.21-1.64-.27-.56-.07-1.14-.1-1.72-.1-.84,0-1.52.06-2.06.18-.54.12-.97.28-1.29.46-.32.19-.54.4-.66.63-.12.23-.19.46-.19.69,0,.45.2.81.6,1.09.4.29,1.01.43,1.83.43.33,0,.71-.02,1.14-.07.43-.05.88-.1,1.35-.16.47-.06.96-.11,1.45-.16.49-.05.97-.07,1.44-.07.88,0,1.66.1,2.34.3.68.2,1.25.48,1.7.85.46.37.8.81,1.04,1.33.23.52.35,1.1.35,1.74,0,.86-.2,1.63-.6,2.3s-.96,1.24-1.7,1.7c-.74.46-1.62.81-2.66,1.05-1.04.24-2.19.36-3.47.36-.84,0-1.66-.05-2.46-.16-.8-.11-1.57-.25-2.31-.45-.74-.19-1.44-.43-2.1-.7-.67-.27-1.28-.57-1.85-.89l1.61-2.45Z"/>
          <polygon class="cls-3" points="25.76 74.34 20.25 74.34 20.25 71.68 34.29 71.68 34.29 74.34 28.78 74.34 28.78 86.61 25.76 86.61 25.76 74.34"/>
          <path class="cls-3" d="M43.4,71.68h3.21l7.22,14.93h-3.18l-1.2-2.51h-8.72l-1.16,2.51h-3.19l7.01-14.93ZM48.26,81.61l-3.23-6.78-3.14,6.78h6.37Z"/>
          <polygon class="cls-3" points="61.43 74.34 55.92 74.34 55.92 71.68 69.97 71.68 69.97 74.34 64.46 74.34 64.46 86.61 61.43 86.61 61.43 74.34"/>
          <polygon class="cls-3" points="75.35 71.68 88.06 71.68 88.06 74.34 78.37 74.34 78.37 77.32 86.95 77.32 86.95 79.81 78.37 79.81 78.37 83.96 88.26 83.96 88.26 86.61 75.35 86.61 75.35 71.68"/>
        </g>
      </g>
      <rect class="cls-2" x="262.96" width="7.26" height="134.3"/>
      <g>
        <path class="cls-3" d="M301.7,52.41c1.11.62,2.23,1.19,3.37,1.69,1.14.5,2.32.92,3.54,1.27,1.22.35,2.51.61,3.86.79,1.35.18,2.78.27,4.31.27,1.84,0,3.4-.12,4.69-.36,1.29-.24,2.34-.57,3.15-1,.81-.42,1.41-.93,1.78-1.51s.56-1.22.56-1.91c0-1.11-.46-1.98-1.39-2.63-.92-.64-2.35-.97-4.28-.97-.85,0-1.74.06-2.68.17-.94.11-1.88.23-2.84.36-.96.13-1.9.25-2.83.36-.93.11-1.81.17-2.63.17-1.37,0-2.68-.18-3.94-.53-1.26-.35-2.37-.88-3.34-1.58-.97-.7-1.74-1.58-2.31-2.64-.57-1.05-.86-2.29-.86-3.69,0-.83.11-1.66.34-2.48.23-.82.59-1.6,1.09-2.35.5-.75,1.15-1.45,1.94-2.09.79-.64,1.75-1.2,2.88-1.67,1.13-.47,2.43-.84,3.91-1.1,1.48-.27,3.16-.4,5.05-.4,1.37,0,2.74.08,4.12.22,1.38.15,2.72.36,4.03.63s2.57.6,3.78.99c1.21.38,2.34.81,3.38,1.28l-2.71,5c-.86-.38-1.78-.73-2.77-1.04-.99-.32-2.02-.6-3.11-.83-1.08-.23-2.2-.42-3.35-.56s-2.33-.21-3.53-.21c-1.71,0-3.11.12-4.21.37-1.1.25-1.98.56-2.63.95-.65.38-1.1.81-1.36,1.29-.25.48-.38.95-.38,1.42,0,.91.41,1.66,1.23,2.24.82.58,2.07.87,3.75.87.68,0,1.46-.05,2.33-.15s1.8-.21,2.77-.32c.97-.12,1.96-.22,2.97-.32,1.01-.1,1.99-.15,2.94-.15,1.8,0,3.39.2,4.78.61,1.39.4,2.55.98,3.49,1.73.94.75,1.65,1.65,2.13,2.71.48,1.06.72,2.25.72,3.56,0,1.76-.41,3.32-1.22,4.7-.81,1.37-1.97,2.53-3.48,3.48-1.5.94-3.32,1.66-5.44,2.15-2.12.49-4.49.73-7.09.73-1.72,0-3.4-.11-5.04-.32s-3.21-.52-4.72-.92c-1.5-.4-2.94-.87-4.3-1.43-1.36-.55-2.62-1.16-3.78-1.83l3.3-5.02Z"/>
        <path class="cls-3" d="M338.42,46.04c0-2.17.41-4.2,1.23-6.08.82-1.88,2.01-3.52,3.56-4.9,1.56-1.39,3.46-2.48,5.7-3.27,2.25-.79,4.79-1.19,7.63-1.19,2.49,0,4.77.25,6.85.75,2.08.5,4.01,1.27,5.79,2.29l-2.85,4.69c-.53-.35-1.15-.66-1.85-.94-.7-.27-1.44-.5-2.23-.69-.79-.19-1.6-.33-2.44-.44-.84-.1-1.67-.16-2.49-.16-1.98,0-3.74.24-5.29.73-1.55.49-2.85,1.17-3.92,2.05-1.06.88-1.87,1.93-2.42,3.14-.55,1.22-.83,2.56-.83,4.01s.29,2.9.86,4.16c.57,1.26,1.4,2.35,2.49,3.27s2.42,1.63,3.98,2.15c1.57.51,3.34.77,5.32.77.9,0,1.79-.06,2.68-.2.89-.13,1.74-.31,2.57-.54.83-.23,1.62-.5,2.39-.82.77-.32,1.48-.67,2.15-1.04l2.85,4.69c-1.67,1.07-3.59,1.9-5.78,2.51s-4.51.91-6.97.91c-3.14,0-5.89-.41-8.26-1.22-2.37-.81-4.35-1.93-5.94-3.36-1.59-1.43-2.78-3.11-3.58-5.04s-1.2-4.01-1.2-6.24Z"/>
        <path class="cls-3" d="M376.95,30.97h6.19v7.97h18.98v-7.97h6.21v30.53h-6.21v-17.27h-18.98v17.27h-6.19v-30.53Z"/>
        <path class="cls-3" d="M415.21,46.14c0-2.3.42-4.41,1.27-6.33s2.03-3.56,3.56-4.93c1.53-1.37,3.37-2.44,5.51-3.19,2.14-.75,4.51-1.13,7.12-1.13s4.96.38,7.11,1.13c2.15.76,3.99,1.82,5.52,3.19,1.53,1.37,2.72,3.02,3.56,4.93s1.27,4.02,1.27,6.33-.42,4.44-1.27,6.38-2.03,3.6-3.56,4.99c-1.53,1.39-3.37,2.48-5.52,3.25s-4.52,1.16-7.11,1.16-4.98-.39-7.12-1.16-3.98-1.86-5.51-3.25c-1.53-1.39-2.72-3.06-3.56-4.99s-1.27-4.06-1.27-6.38ZM421.41,46.14c0,1.58.28,3,.85,4.26.57,1.26,1.35,2.34,2.36,3.23,1.01.89,2.2,1.58,3.57,2.06,1.37.48,2.87.72,4.48.72s3.11-.24,4.48-.72c1.37-.48,2.56-1.17,3.56-2.06,1-.89,1.79-1.97,2.36-3.23.57-1.26.86-2.68.86-4.26s-.29-2.99-.86-4.24-1.36-2.31-2.36-3.17c-1-.87-2.19-1.53-3.56-1.98-1.37-.46-2.87-.68-4.48-.68s-3.11.23-4.48.68c-1.37.46-2.57,1.12-3.57,1.98-1.01.87-1.8,1.92-2.36,3.17s-.85,2.66-.85,4.24Z"/>
        <path class="cls-3" d="M455.21,46.14c0-2.3.42-4.41,1.27-6.33s2.03-3.56,3.56-4.93c1.53-1.37,3.37-2.44,5.51-3.19,2.14-.75,4.51-1.13,7.12-1.13s4.96.38,7.11,1.13c2.15.76,3.99,1.82,5.52,3.19,1.53,1.37,2.72,3.02,3.56,4.93s1.27,4.02,1.27,6.33-.42,4.44-1.27,6.38-2.03,3.6-3.56,4.99c-1.53,1.39-3.37,2.48-5.52,3.25s-4.52,1.16-7.11,1.16-4.98-.39-7.12-1.16-3.98-1.86-5.51-3.25c-1.53-1.39-2.72-3.06-3.56-4.99s-1.27-4.06-1.27-6.38ZM461.41,46.14c0,1.58.28,3,.85,4.26.57,1.26,1.35,2.34,2.36,3.23,1.01.89,2.2,1.58,3.57,2.06,1.37.48,2.87.72,4.48.72s3.11-.24,4.48-.72c1.37-.48,2.56-1.17,3.56-2.06,1-.89,1.79-1.97,2.36-3.23.57-1.26.86-2.68.86-4.26s-.29-2.99-.86-4.24-1.36-2.31-2.36-3.17c-1-.87-2.19-1.53-3.56-1.98-1.37-.46-2.87-.68-4.48-.68s-3.11.23-4.48.68c-1.37.46-2.57,1.12-3.57,1.98-1.01.87-1.8,1.92-2.36,3.17s-.85,2.66-.85,4.24Z"/>
        <path class="cls-3" d="M497.01,30.97h6.19v25.1h17.75v5.43h-23.95v-30.53Z"/>
        <path class="cls-3" d="M538.44,46.14c0-2.3.42-4.41,1.27-6.33s2.03-3.56,3.56-4.93c1.53-1.37,3.37-2.44,5.51-3.19,2.14-.75,4.51-1.13,7.12-1.13s4.96.38,7.11,1.13c2.15.76,3.99,1.82,5.52,3.19,1.53,1.37,2.72,3.02,3.56,4.93s1.27,4.02,1.27,6.33-.42,4.44-1.27,6.38-2.03,3.6-3.56,4.99c-1.53,1.39-3.37,2.48-5.52,3.25s-4.52,1.16-7.11,1.16-4.98-.39-7.12-1.16-3.98-1.86-5.51-3.25c-1.53-1.39-2.72-3.06-3.56-4.99s-1.27-4.06-1.27-6.38ZM544.63,46.14c0,1.58.28,3,.85,4.26.57,1.26,1.35,2.34,2.36,3.23,1.01.89,2.2,1.58,3.57,2.06,1.37.48,2.87.72,4.48.72s3.11-.24,4.48-.72c1.37-.48,2.56-1.17,3.56-2.06,1-.89,1.79-1.97,2.36-3.23.57-1.26.86-2.68.86-4.26s-.29-2.99-.86-4.24-1.36-2.31-2.36-3.17c-1-.87-2.19-1.53-3.56-1.98-1.37-.46-2.87-.68-4.48-.68s-3.11.23-4.48.68c-1.37.46-2.57,1.12-3.57,1.98-1.01.87-1.8,1.92-2.36,3.17s-.85,2.66-.85,4.24Z"/>
        <path class="cls-3" d="M580.23,30.97h27.3v5.43h-21.11v7.99h17.93v5.1h-17.93v12.01h-6.19v-30.53Z"/>
        <path class="cls-3" d="M300.27,70.97h26v5.43h-19.8v6.09h17.54v5.1h-17.54v8.5h20.21v5.41h-26.41v-30.53Z"/>
        <path class="cls-3" d="M333.52,70.97h6.19l19.02,9.96v-9.96h6.19v30.53h-6.19v-14l-19.02-9.9v23.91h-6.19v-30.53Z"/>
        <path class="cls-3" d="M371.46,85.95c0-2.15.4-4.16,1.21-6.03.81-1.87,1.99-3.49,3.54-4.87,1.55-1.38,3.45-2.47,5.71-3.26,2.26-.79,4.85-1.19,7.76-1.19,1.05,0,2.11.06,3.17.17,1.06.11,2.11.28,3.14.52s2.04.53,3.03.89c.98.36,1.92.78,2.8,1.28l-2.85,4.69c-.53-.31-1.14-.6-1.82-.85s-1.4-.47-2.18-.64-1.58-.31-2.4-.4c-.83-.09-1.66-.14-2.49-.14-1.93,0-3.65.24-5.16.73s-2.79,1.17-3.83,2.05-1.84,1.93-2.38,3.15c-.55,1.22-.82,2.57-.82,4.02s.29,2.9.86,4.16c.57,1.26,1.39,2.35,2.44,3.26,1.05.91,2.33,1.62,3.83,2.14,1.5.51,3.17.77,5.02.77,1.47,0,2.82-.17,4.04-.5s2.29-.8,3.2-1.42c.91-.61,1.65-1.35,2.23-2.22.57-.87.95-1.84,1.13-2.92h-10.66v-5.1h16.23v.02l.02-.02c.33,1.56.43,3.08.3,4.56-.12,1.48-.46,2.87-1.02,4.18s-1.31,2.51-2.28,3.6-2.12,2.03-3.46,2.82c-1.34.79-2.86,1.4-4.57,1.84s-3.57.65-5.61.65c-2.84,0-5.38-.42-7.63-1.25-2.25-.83-4.15-1.97-5.71-3.42s-2.76-3.14-3.58-5.08c-.83-1.94-1.24-4.01-1.24-6.21Z"/>
        <path class="cls-3" d="M412.77,70.97h6.23v30.53h-6.23v-30.53Z"/>
        <path class="cls-3" d="M426.86,70.97h6.19l19.02,9.96v-9.96h6.19v30.53h-6.19v-14l-19.02-9.9v23.91h-6.19v-30.53Z"/>
        <path class="cls-3" d="M466.89,70.97h26v5.43h-19.8v6.09h17.54v5.1h-17.54v8.5h20.21v5.41h-26.41v-30.53Z"/>
        <path class="cls-3" d="M500.18,70.97h26v5.43h-19.8v6.09h17.54v5.1h-17.54v8.5h20.21v5.41h-26.41v-30.53Z"/>
        <path class="cls-3" d="M533.46,70.97h15.53c2.34,0,4.38.24,6.09.73s3.14,1.19,4.28,2.12c1.13.92,1.98,2.05,2.53,3.38s.83,2.83.83,4.51c0,1.13-.14,2.21-.41,3.23-.27,1.02-.69,1.96-1.26,2.82s-1.28,1.62-2.14,2.29c-.86.67-1.87,1.23-3.03,1.67l6.64,9.77h-7.58l-5.74-8.67h-.18l-9.38-.02v8.69h-6.19v-30.53ZM549.14,87.45c1.17,0,2.2-.14,3.08-.41s1.61-.66,2.21-1.15c.59-.49,1.04-1.1,1.33-1.81.29-.71.44-1.5.44-2.37,0-1.71-.59-3.02-1.76-3.96-1.17-.93-2.94-1.4-5.29-1.4h-9.49v11.09h9.49Z"/>
        <path class="cls-3" d="M569.26,70.97h6.23v30.53h-6.23v-30.53Z"/>
        <path class="cls-3" d="M583.34,70.97h6.19l19.02,9.96v-9.96h6.19v30.53h-6.19v-14l-19.02-9.9v23.91h-6.19v-30.53Z"/>
        <path class="cls-3" d="M621.29,85.95c0-2.15.4-4.16,1.21-6.03.81-1.87,1.99-3.49,3.54-4.87,1.55-1.38,3.45-2.47,5.71-3.26,2.26-.79,4.85-1.19,7.76-1.19,1.05,0,2.11.06,3.17.17,1.06.11,2.11.28,3.14.52s2.04.53,3.03.89c.98.36,1.92.78,2.8,1.28l-2.85,4.69c-.53-.31-1.14-.6-1.82-.85s-1.4-.47-2.18-.64-1.58-.31-2.4-.4c-.83-.09-1.66-.14-2.49-.14-1.93,0-3.65.24-5.16.73s-2.79,1.17-3.83,2.05-1.84,1.93-2.38,3.15c-.55,1.22-.82,2.57-.82,4.02s.29,2.9.86,4.16c.57,1.26,1.39,2.35,2.44,3.26,1.05.91,2.33,1.62,3.83,2.14,1.5.51,3.17.77,5.02.77,1.47,0,2.82-.17,4.04-.5s2.29-.8,3.2-1.42c.91-.61,1.65-1.35,2.23-2.22.57-.87.95-1.84,1.13-2.92h-10.66v-5.1h16.23v.02l.02-.02c.33,1.56.43,3.08.3,4.56-.12,1.48-.46,2.87-1.02,4.18s-1.31,2.51-2.28,3.6-2.12,2.03-3.46,2.82c-1.34.79-2.86,1.4-4.57,1.84s-3.57.65-5.61.65c-2.84,0-5.38-.42-7.63-1.25-2.25-.83-4.15-1.97-5.71-3.42s-2.76-3.14-3.58-5.08c-.83-1.94-1.24-4.01-1.24-6.21Z"/>
      </g>
    </g>
  </g>
</svg>